<?xml version="1.0" encoding="UTF-8" standalone="no"?>
<!-- Created with Inkscape (http://www.inkscape.org/) -->

<svg
   width="239"
   height="75"
   viewBox="0 0 63.235415 19.84375"
   version="1.1"
   id="svg1"
   inkscape:version="1.3 (0e150ed6c4, 2023-07-21)"
   sodipodi:docname="LogoHorizontalFSD.svg"
   xmlns:inkscape="http://www.inkscape.org/namespaces/inkscape"
   xmlns:sodipodi="http://sodipodi.sourceforge.net/DTD/sodipodi-0.dtd"
   xmlns="http://www.w3.org/2000/svg"
   xmlns:svg="http://www.w3.org/2000/svg">
  <sodipodi:namedview
     id="namedview1"
     pagecolor="#505050"
     bordercolor="#ffffff"
     borderopacity="1"
     inkscape:showpageshadow="0"
     inkscape:pageopacity="0"
     inkscape:pagecheckerboard="1"
     inkscape:deskcolor="#505050"
     inkscape:document-units="mm"
     inkscape:zoom="2.6333614"
     inkscape:cx="138.79599"
     inkscape:cy="69.303059"
     inkscape:window-width="1920"
     inkscape:window-height="974"
     inkscape:window-x="-11"
     inkscape:window-y="-11"
     inkscape:window-maximized="1"
     inkscape:current-layer="g1" />
  <defs
     id="defs1">
    <clipPath
       clipPathUnits="userSpaceOnUse"
       id="clipPath255">
      <path
         d="M 0,1200 H 840 V 0 H 0 Z"
         transform="translate(-177.75831,-910.74552)"
         id="path255" />
    </clipPath>
    <clipPath
       clipPathUnits="userSpaceOnUse"
       id="clipPath257">
      <path
         d="M 0,1200 H 840 V 0 H 0 Z"
         transform="translate(-183.4458,-910.55112)"
         id="path257" />
    </clipPath>
    <clipPath
       clipPathUnits="userSpaceOnUse"
       id="clipPath259">
      <path
         d="M 0,1200 H 840 V 0 H 0 Z"
         transform="translate(-191.10111,-910.74552)"
         id="path259" />
    </clipPath>
    <clipPath
       clipPathUnits="userSpaceOnUse"
       id="clipPath261">
      <path
         d="M 0,1200 H 840 V 0 H 0 Z"
         transform="translate(-200.81791,-916.07312)"
         id="path261" />
    </clipPath>
    <clipPath
       clipPathUnits="userSpaceOnUse"
       id="clipPath263">
      <path
         d="M 0,1200 H 840 V 0 H 0 Z"
         transform="translate(-207.26521,-914.32703)"
         id="path263" />
    </clipPath>
    <clipPath
       clipPathUnits="userSpaceOnUse"
       id="clipPath265">
      <path
         d="M 0,1200 H 840 V 0 H 0 Z"
         transform="translate(-214.981,-911.89493)"
         id="path265" />
    </clipPath>
    <clipPath
       clipPathUnits="userSpaceOnUse"
       id="clipPath267">
      <path
         d="M 0,1200 H 840 V 0 H 0 Z"
         transform="translate(-216.11671,-920.38613)"
         id="path267" />
    </clipPath>
    <clipPath
       clipPathUnits="userSpaceOnUse"
       id="clipPath269">
      <path
         d="M 0,1200 H 840 V 0 H 0 Z"
         transform="translate(-221.78761,-919.02822)"
         id="path269" />
    </clipPath>
    <clipPath
       clipPathUnits="userSpaceOnUse"
       id="clipPath271">
      <path
         d="M 0,1200 H 840 V 0 H 0 Z"
         transform="translate(-228.98101,-910.74552)"
         id="path271" />
    </clipPath>
    <clipPath
       clipPathUnits="userSpaceOnUse"
       id="clipPath273">
      <path
         d="M 0,1200 H 840 V 0 H 0 Z"
         transform="translate(-237.6343,-913.40952)"
         id="path273" />
    </clipPath>
    <clipPath
       clipPathUnits="userSpaceOnUse"
       id="clipPath275">
      <path
         d="M 0,1200 H 840 V 0 H 0 Z"
         transform="translate(-247.8277,-914.23032)"
         id="path275" />
    </clipPath>
    <clipPath
       clipPathUnits="userSpaceOnUse"
       id="clipPath277">
      <path
         d="M 0,1200 H 840 V 0 H 0 Z"
         transform="translate(-254.49951,-910.70843)"
         id="path277" />
    </clipPath>
    <clipPath
       clipPathUnits="userSpaceOnUse"
       id="clipPath279">
      <path
         d="M 0,1200 H 840 V 0 H 0 Z"
         transform="translate(-263.2906,-911.54432)"
         id="path279" />
    </clipPath>
    <clipPath
       clipPathUnits="userSpaceOnUse"
       id="clipPath281">
      <path
         d="M 0,1200 H 840 V 0 H 0 Z"
         transform="translate(-267.8872,-916.84223)"
         id="path281" />
    </clipPath>
    <clipPath
       clipPathUnits="userSpaceOnUse"
       id="clipPath283">
      <path
         d="M 0,1200 H 840 V 0 H 0 Z"
         transform="translate(-276.11091,-912.78263)"
         id="path283" />
    </clipPath>
    <clipPath
       clipPathUnits="userSpaceOnUse"
       id="clipPath285">
      <path
         d="M 0,1200 H 840 V 0 H 0 Z"
         transform="translate(-287.25931,-916.84223)"
         id="path285" />
    </clipPath>
    <clipPath
       clipPathUnits="userSpaceOnUse"
       id="clipPath287">
      <path
         d="M 0,1200 H 840 V 0 H 0 Z"
         transform="translate(-293.85601,-910.70843)"
         id="path287" />
    </clipPath>
    <clipPath
       clipPathUnits="userSpaceOnUse"
       id="clipPath289">
      <path
         d="M 0,1200 H 840 V 0 H 0 Z"
         transform="translate(-303.06591,-920.10972)"
         id="path289" />
    </clipPath>
    <clipPath
       clipPathUnits="userSpaceOnUse"
       id="clipPath291">
      <path
         d="M 0,1200 H 840 V 0 H 0 Z"
         transform="translate(-309.97511,-910.70843)"
         id="path291" />
    </clipPath>
    <clipPath
       clipPathUnits="userSpaceOnUse"
       id="clipPath293">
      <path
         d="M 0,1200 H 840 V 0 H 0 Z"
         transform="translate(-317.54151,-917.46863)"
         id="path293" />
    </clipPath>
    <clipPath
       clipPathUnits="userSpaceOnUse"
       id="clipPath295">
      <path
         d="M 0,1200 H 840 V 0 H 0 Z"
         transform="translate(-325.67631,-916.84223)"
         id="path295" />
    </clipPath>
    <clipPath
       clipPathUnits="userSpaceOnUse"
       id="clipPath297">
      <path
         d="M 0,1200 H 840 V 0 H 0 Z"
         transform="translate(-336.85501,-932.21333)"
         id="path297" />
    </clipPath>
    <clipPath
       clipPathUnits="userSpaceOnUse"
       id="clipPath299">
      <path
         d="M 0,1200 H 840 V 0 H 0 Z"
         transform="translate(-347.10791,-927.04772)"
         id="path299" />
    </clipPath>
    <clipPath
       clipPathUnits="userSpaceOnUse"
       id="clipPath301">
      <path
         d="M 0,1200 H 840 V 0 H 0 Z"
         transform="translate(-339.33451,-918.10883)"
         id="path301" />
    </clipPath>
    <clipPath
       clipPathUnits="userSpaceOnUse"
       id="clipPath303">
      <path
         d="M 0,1200 H 840 V 0 H 0 Z"
         transform="translate(-327.70761,-920.37053)"
         id="path303" />
    </clipPath>
    <clipPath
       clipPathUnits="userSpaceOnUse"
       id="clipPath305">
      <path
         d="M 0,1200 H 840 V 0 H 0 Z"
         transform="translate(-327.49371,-925.26653)"
         id="path305" />
    </clipPath>
    <clipPath
       clipPathUnits="userSpaceOnUse"
       id="clipPath307">
      <path
         d="M 0,1200 H 840 V 0 H 0 Z"
         transform="translate(-332.88921,-931.50962)"
         id="path307" />
    </clipPath>
    <clipPath
       clipPathUnits="userSpaceOnUse"
       id="clipPath255-1">
      <path
         d="M 0,1200 H 840 V 0 H 0 Z"
         transform="translate(-177.75831,-910.74552)"
         id="path255-3" />
    </clipPath>
  </defs>
  <g
     inkscape:label="Capa 1"
     inkscape:groupmode="layer"
     id="layer1">
    <g
       id="g1">
      <g
         id="g3"
         transform="matrix(0.88230526,0,0,0.88261794,-17.057279,-67.570015)">
        <g
           id="g2">
          <path
             id="path254"
             d="m 0,0 h -3.044 v 0.074 c 0.403,0.135 0.642,0.284 0.746,0.464 0.105,0.193 0.15,0.656 0.15,1.387 v 6.462 c 0,0.582 -0.06,0.955 -0.165,1.09 C -2.462,9.641 -2.7,9.775 -3.044,9.879 V 9.954 H 2.194 C 2.448,9.954 2.508,9.895 2.508,9.611 2.508,9.387 2.463,8.91 2.389,8.148 H 2.299 C 2.061,8.984 1.866,9.238 1.522,9.357 1.329,9.432 1.045,9.461 0.672,9.461 h -1.328 c -0.299,0 -0.373,-0.104 -0.373,-0.447 V 5.298 h 1.164 c 0.447,0 0.761,0.03 0.926,0.075 0.432,0.119 0.596,0.342 0.76,0.94 h 0.09 V 3.791 H 1.821 C 1.657,4.403 1.522,4.596 1,4.731 0.852,4.76 0.567,4.775 0.135,4.775 h -1.164 v -2.88 c 0,-1 0.03,-1.208 0.209,-1.388 C -0.701,0.373 -0.433,0.224 0,0.074 Z"
             style="fill:#0b2718;fill-opacity:1;fill-rule:nonzero;stroke:none"
             transform="matrix(0.35277776,0,0,-0.35277776,25.680106,92.618847)"
             clip-path="url(#clipPath255)" />
          <path
             id="path256"
             d="m 0,0 c -0.971,0 -1.583,0.418 -1.836,1.239 -0.105,0.358 -0.149,0.895 -0.149,1.612 v 2.522 c 0,0.716 -0.031,1.164 -0.105,1.357 -0.09,0.285 -0.313,0.434 -0.657,0.464 v 0.074 c 0.553,0.134 1.075,0.194 1.537,0.194 0.239,0 0.299,-0.06 0.299,-0.343 0,-0.015 -0.015,-0.344 -0.03,-0.985 C -0.956,5.507 -0.956,5.015 -0.956,4.642 V 3.015 c 0,-0.911 0.104,-1.522 0.328,-1.836 0.225,-0.313 0.583,-0.462 1.061,-0.462 0.551,0 0.984,0.164 1.297,0.507 C 1.895,1.418 2.014,1.627 2.089,1.865 2.133,2.06 2.163,2.403 2.163,2.88 V 5.447 C 2.163,6.134 2.118,6.566 2.044,6.746 1.939,7.015 1.73,7.164 1.388,7.194 V 7.268 C 1.91,7.402 2.432,7.462 2.954,7.462 3.148,7.462 3.223,7.417 3.223,7.134 3.223,7.119 3.208,6.775 3.193,6.075 3.178,5.373 3.178,4.851 3.178,4.492 V 1.791 c 0,-0.776 0.21,-1.164 0.627,-1.164 0.045,0 0.194,0.03 0.418,0.075 L 4.253,0.627 C 3.879,0.254 3.477,0.06 3.044,0.06 2.491,0.06 2.238,0.434 2.193,1.389 1.79,0.463 1.059,0 0,0"
             style="fill:#0b2718;fill-opacity:1;fill-rule:nonzero;stroke:none"
             transform="matrix(0.35277776,0,0,-0.35277776,27.686529,92.687427)"
             clip-path="url(#clipPath257)" />
          <path
             id="path258"
             d="m 0,0 h -2.581 v 0.06 c 0.343,0.134 0.552,0.283 0.626,0.447 0.09,0.15 0.135,0.553 0.135,1.209 v 3.537 c 0,0.657 -0.045,1.09 -0.149,1.283 C -2.089,6.805 -2.298,6.955 -2.581,7 v 0.074 c 0.462,0.149 0.955,0.224 1.477,0.224 0.194,0 0.314,-0.09 0.329,-0.269 0.014,-0.119 0.014,-0.493 0.014,-1.134 0.344,0.91 1.18,1.463 2.269,1.463 0.91,0 1.477,-0.403 1.701,-1.224 C 3.299,5.791 3.344,5.253 3.344,4.552 V 1.761 C 3.344,1.089 3.403,0.657 3.522,0.462 3.612,0.298 3.836,0.164 4.194,0.06 V 0 H 1.598 V 0.06 C 1.881,0.179 2.061,0.328 2.165,0.493 2.269,0.687 2.329,1.104 2.329,1.776 V 4.358 C 2.329,5.298 2.225,5.91 2.03,6.179 1.807,6.492 1.463,6.641 1.016,6.641 0.478,6.641 0.061,6.492 -0.253,6.193 -0.492,5.984 -0.642,5.746 -0.7,5.462 -0.745,5.148 -0.775,4.865 -0.775,4.626 V 1.761 c 0,-0.672 0.045,-1.104 0.149,-1.268 C -0.536,0.328 -0.328,0.179 0,0.06 Z"
             style="fill:#0b2718;fill-opacity:1;fill-rule:nonzero;stroke:none"
             transform="matrix(0.35277776,0,0,-0.35277776,30.387149,92.618847)"
             clip-path="url(#clipPath259)" />
          <path
             id="path260"
             d="m 0,0 c 0,0.522 -0.06,0.866 -0.194,1.044 -0.239,0.344 -0.657,0.523 -1.239,0.523 -1.373,0 -2,-1.269 -2,-3.224 0,-2.268 0.836,-3.178 1.926,-3.178 0.581,0 1.029,0.253 1.328,0.746 C -0.06,-3.91 0,-3.642 0,-3.268 Z m -1.851,-5.507 c -1.671,0 -2.701,1.284 -2.701,3.567 0,2.493 1.135,3.97 3.149,3.97 0.597,0 1.06,-0.15 1.403,-0.448 V 3.179 C 0,3.806 -0.029,4.194 -0.074,4.343 -0.179,4.656 -0.418,4.851 -0.761,4.896 V 4.97 c 0.552,0.164 1.074,0.238 1.567,0.238 0.178,0 0.268,-0.119 0.268,-0.357 C 1.074,4.701 1.06,3.925 1.045,2.537 1.029,1.149 1.029,0.253 1.029,-0.149 v -3.597 c 0,-0.88 0.195,-1.149 0.598,-1.149 0.164,0 0.313,0.015 0.418,0.06 l 0.029,-0.06 C 1.731,-5.268 1.343,-5.462 0.91,-5.462 0.328,-5.462 0.09,-5.133 0.045,-4.283 -0.254,-5.014 -1,-5.507 -1.851,-5.507"
             style="fill:#0b2718;fill-opacity:1;fill-rule:nonzero;stroke:none"
             transform="matrix(0.35277776,0,0,-0.35277776,33.81502,90.739387)"
             clip-path="url(#clipPath261)" />
          <path
             id="path262"
             d="m 0,0 c -0.09,-0.075 -0.224,-0.12 -0.402,-0.149 -0.91,-0.179 -1.449,-0.298 -1.582,-0.358 -0.508,-0.224 -0.761,-0.642 -0.761,-1.224 0,-0.911 0.507,-1.388 1.223,-1.388 0.642,0 1.224,0.328 1.448,0.94 C -0.029,-2.059 0,-1.851 0,-1.566 Z m -1.865,-3.761 c -1.194,0 -1.94,0.776 -1.94,1.97 0,0.791 0.388,1.329 1.179,1.612 0.388,0.135 1.045,0.283 1.955,0.418 0.388,0.06 0.597,0.119 0.611,0.179 C -0.015,0.508 0,0.657 0,0.88 V 1.224 C 0,2 -0.104,2.492 -0.312,2.687 -0.567,2.94 -0.939,3.06 -1.462,3.06 -2.313,3.06 -3.014,2.731 -3.253,2.254 h -0.06 c -0.014,0.074 -0.03,0.149 -0.03,0.223 0,0.374 0.224,0.672 0.657,0.926 0.448,0.253 0.97,0.373 1.567,0.373 1.418,0 2.164,-0.612 2.164,-2.209 0,-0.164 0,-0.716 -0.015,-1.627 v -2.014 c 0,-0.941 0.194,-1.149 0.657,-1.149 0.12,0 0.253,0.03 0.403,0.074 L 2.119,-3.208 C 1.821,-3.552 1.463,-3.731 1.045,-3.731 c -0.642,0 -0.97,0.418 -0.984,1.239 -0.359,-0.836 -1.09,-1.269 -1.926,-1.269"
             style="fill:#0b2718;fill-opacity:1;fill-rule:nonzero;stroke:none"
             transform="matrix(0.35277776,0,0,-0.35277776,36.089484,91.355372)"
             clip-path="url(#clipPath263)" />
          <path
             id="path264"
             d="m 0,0 v -0.089 c 0,-0.076 -0.03,-0.18 -0.104,-0.314 -0.284,-0.478 -0.985,-0.941 -2,-0.941 -1.792,0 -2.895,1.314 -2.895,3.687 0,2.507 1.283,3.865 3.148,3.865 0.613,0 1.09,-0.089 1.433,-0.269 0.194,-0.089 0.299,-0.223 0.299,-0.402 0,-0.314 -0.075,-0.717 -0.224,-1.209 h -0.09 c -0.088,0.492 -0.268,0.85 -0.537,1.104 -0.209,0.194 -0.522,0.299 -0.955,0.299 -1.119,0 -1.955,-0.956 -1.955,-3.165 0,-2.268 0.881,-3.208 2.15,-3.208 0.7,0 1.252,0.224 1.67,0.672 z"
             style="fill:#0b2718;fill-opacity:1;fill-rule:nonzero;stroke:none"
             transform="matrix(0.35277776,0,0,-0.35277776,38.811446,92.213362)"
             clip-path="url(#clipPath265)" />
          <path
             id="path266"
             d="M 0,0 C 0,0.462 0.298,0.761 0.73,0.761 1.626,0.881 1.641,-0.85 0.7,-0.746 0.298,-0.746 0,-0.433 0,0 m 2.148,-9.641 h -2.612 v 0.06 c 0.344,0.135 0.568,0.284 0.642,0.463 0.09,0.149 0.134,0.567 0.134,1.238 v 3.418 c 0,0.612 -0.044,1.045 -0.134,1.298 -0.104,0.299 -0.328,0.478 -0.642,0.523 v 0.074 c 0.553,0.15 1.075,0.224 1.553,0.224 0.223,0 0.299,-0.074 0.299,-0.388 0,-0.074 0,-0.477 -0.016,-1.208 C 1.357,-4.671 1.357,-5.164 1.357,-5.447 v -2.418 c 0,-0.686 0.045,-1.104 0.134,-1.253 0.119,-0.224 0.344,-0.373 0.657,-0.463 z"
             style="fill:#0b2718;fill-opacity:1;fill-rule:nonzero;stroke:none"
             transform="matrix(0.35277776,0,0,-0.35277776,39.212096,89.217856)"
             clip-path="url(#clipPath267)" />
          <path
             id="path268"
             d="M 0,0 -0.074,0.06 1.119,2.388 C 1.269,2.701 1.448,2.851 1.656,2.851 1.94,2.851 2.149,2.656 2.149,2.403 2.149,2.208 2.029,2 1.791,1.776 Z m 0.597,-1.373 c -0.537,0 -1,-0.253 -1.403,-0.761 -0.387,-0.492 -0.582,-1.344 -0.582,-2.523 0,-2.327 0.762,-3.372 1.94,-3.372 1.179,0 1.91,1.074 1.91,3.298 0,2.239 -0.626,3.358 -1.865,3.358 M 0.522,-8.477 c -1.865,0 -3.029,1.209 -3.029,3.701 0,1.254 0.298,2.209 0.896,2.865 0.596,0.657 1.342,0.986 2.253,0.986 1.91,0 2.925,-1.284 2.925,-3.672 0,-2.491 -1.134,-3.88 -3.045,-3.88"
             style="fill:#0b2718;fill-opacity:1;fill-rule:nonzero;stroke:none"
             transform="matrix(0.35277776,0,0,-0.35277776,41.212664,89.696895)"
             clip-path="url(#clipPath269)" />
          <path
             id="path270"
             d="m 0,0 h -2.582 v 0.06 c 0.344,0.134 0.553,0.283 0.627,0.447 0.09,0.15 0.134,0.553 0.134,1.209 v 3.537 c 0,0.657 -0.044,1.09 -0.149,1.283 C -2.09,6.805 -2.299,6.955 -2.582,7 v 0.074 c 0.463,0.149 0.955,0.224 1.478,0.224 0.194,0 0.313,-0.09 0.328,-0.269 0.015,-0.119 0.015,-0.493 0.015,-1.134 0.343,0.91 1.179,1.463 2.269,1.463 0.91,0 1.477,-0.403 1.7,-1.224 C 3.298,5.791 3.343,5.253 3.343,4.552 V 1.761 C 3.343,1.089 3.402,0.657 3.521,0.462 3.611,0.298 3.835,0.164 4.193,0.06 V 0 H 1.597 V 0.06 C 1.881,0.179 2.06,0.328 2.164,0.493 2.269,0.687 2.328,1.104 2.328,1.776 V 4.358 C 2.328,5.298 2.224,5.91 2.03,6.179 1.806,6.492 1.463,6.641 1.015,6.641 0.478,6.641 0.06,6.492 -0.254,6.193 -0.492,5.984 -0.642,5.746 -0.701,5.462 -0.746,5.148 -0.776,4.865 -0.776,4.626 V 1.761 c 0,-0.672 0.045,-1.104 0.149,-1.268 C -0.537,0.328 -0.328,0.179 0,0.06 Z"
             style="fill:#0b2718;fill-opacity:1;fill-rule:nonzero;stroke:none"
             transform="matrix(0.35277776,0,0,-0.35277776,43.750335,92.618847)"
             clip-path="url(#clipPath271)" />
          <path
             id="path272"
             d="m 0,0 c 0.12,-0.508 0.358,-0.955 0.731,-1.358 0.478,-0.522 1.09,-0.791 1.822,-0.791 1.074,0 1.596,0.582 1.596,1.298 0,0.388 -0.104,0.717 -0.328,0.97 C 3.598,0.388 3.135,0.731 2.418,1.164 L 1.731,1.567 c -1.418,0.85 -1.91,1.731 -1.91,2.91 0,0.851 0.284,1.567 0.866,2.119 0.582,0.568 1.477,0.851 2.671,0.851 0.702,0 1.269,-0.075 1.687,-0.239 C 5.418,7.074 5.537,6.969 5.537,6.567 5.537,6.164 5.448,5.596 5.269,4.85 H 5.179 C 5.015,5.462 4.836,5.88 4.612,6.119 4.269,6.522 3.807,6.715 3.194,6.715 2.016,6.715 1.522,6.148 1.522,5.357 1.522,5.148 1.553,4.969 1.598,4.82 1.702,4.522 2.194,4 3.194,3.417 L 3.821,3.059 c 1.477,-0.88 2.06,-1.642 2.06,-2.821 0,-1.895 -1.239,-3.134 -3.508,-3.134 -0.91,0 -1.642,0.165 -2.208,0.508 -0.284,0.194 -0.433,0.418 -0.433,0.687 0,0.462 0.044,1.029 0.149,1.701 z"
             style="fill:#0b2718;fill-opacity:1;fill-rule:nonzero;stroke:none"
             transform="matrix(0.35277776,0,0,-0.35277776,46.803026,91.679047)"
             clip-path="url(#clipPath273)" />
          <path
             id="path274"
             d="m 0,0 c -0.104,-0.06 -0.238,-0.104 -0.402,-0.149 -0.463,-0.149 -0.746,-0.269 -0.851,-0.344 -0.254,-0.194 -0.388,-0.522 -0.388,-0.985 0,-0.791 0.269,-1.194 0.791,-1.194 0.372,0 0.642,0.15 0.776,0.464 C -0.029,-2.119 0,-1.97 0,-1.761 Z m -1.611,-3.701 c -1.299,0 -2,0.806 -2,2.014 0,0.851 0.432,1.434 1.313,1.717 0.119,0.044 0.672,0.164 1.642,0.373 0.343,0.059 0.537,0.119 0.582,0.179 C -0.029,0.642 0,0.776 0,0.985 v 0.477 c 0,0.493 -0.074,0.821 -0.224,0.985 -0.193,0.224 -0.537,0.329 -1.045,0.329 -0.73,0 -1.447,-0.254 -1.7,-0.687 l -0.09,0.015 c -0.015,0.134 -0.03,0.254 -0.03,0.329 0,0.358 0.224,0.701 0.656,1.014 0.449,0.329 1.09,0.493 1.941,0.493 1.597,0 2.477,-0.642 2.477,-2.358 0,-0.165 0,-0.687 -0.014,-1.567 V -1.94 c 0,-0.791 0.209,-1.03 0.582,-1.03 0.164,0 0.283,0.015 0.357,0.06 L 2.94,-2.984 C 2.627,-3.358 1.955,-3.671 1.403,-3.671 c -0.85,0 -1.223,0.418 -1.283,1.268 -0.239,-0.731 -0.836,-1.298 -1.731,-1.298"
             style="fill:#0b2718;fill-opacity:1;fill-rule:nonzero;stroke:none"
             transform="matrix(0.35277776,0,0,-0.35277776,50.399031,91.389487)"
             clip-path="url(#clipPath275)" />
          <path
             id="path276"
             d="m 0,0 h -3.402 v 0.06 c 0.312,0.148 0.522,0.313 0.596,0.478 0.075,0.163 0.119,0.447 0.119,0.865 v 4.104 c 0,0.627 -0.074,1.029 -0.209,1.208 C -3,6.865 -3.164,6.969 -3.402,7.044 v 0.075 c 0.567,0.194 1.298,0.283 2.209,0.283 0.297,0 0.462,-0.119 0.477,-0.343 0.015,-0.164 0.029,-0.538 0.029,-1.12 0.299,0.911 1.135,1.523 2.209,1.523 0.941,0 1.522,-0.418 1.716,-1.239 0.075,-0.343 0.12,-0.91 0.12,-1.671 V 1.478 C 3.358,0.94 3.433,0.582 3.582,0.403 3.686,0.269 3.88,0.164 4.149,0.06 V 0 H 0.746 V 0.06 C 0.97,0.194 1.134,0.328 1.239,0.493 1.328,0.657 1.373,1.015 1.373,1.537 v 3 C 1.373,5.313 1.298,5.791 1.134,5.969 0.985,6.148 0.762,6.238 0.463,6.238 0.149,6.238 -0.119,6.148 -0.344,5.984 -0.478,5.88 -0.582,5.746 -0.627,5.581 -0.671,5.358 -0.701,5.148 -0.701,4.955 V 1.478 c 0,-0.523 0.044,-0.866 0.149,-1.016 C -0.478,0.343 -0.283,0.208 0,0.06 Z"
             style="fill:#0b2718;fill-opacity:1;fill-rule:nonzero;stroke:none"
             transform="matrix(0.35277776,0,0,-0.35277776,52.752696,92.631933)"
             clip-path="url(#clipPath277)" />
          <path
             id="path278"
             d="m 0,0 c -0.448,-0.657 -1.074,-0.985 -1.881,-0.985 -0.91,0 -1.417,0.402 -1.521,1.193 -0.031,0.254 -0.045,0.672 -0.045,1.254 V 5.581 H -4.298 V 6 c 0.582,0.193 0.836,0.298 1.314,0.641 0.492,0.358 0.894,0.955 1.268,1.836 h 0.224 V 6.432 h 1.179 V 5.581 h -1.15 V 1.433 c 0,-0.464 0,-0.762 0.015,-0.911 0.045,-0.433 0.255,-0.642 0.642,-0.642 0.284,0 0.537,0.06 0.761,0.194 z"
             style="fill:#0b2718;fill-opacity:1;fill-rule:nonzero;stroke:none"
             transform="matrix(0.35277776,0,0,-0.35277776,55.853999,92.337047)"
             clip-path="url(#clipPath279)" />
          <path
             id="path280"
             d="m 0,0 c -0.209,0.433 -0.522,0.657 -0.926,0.657 -0.881,0 -1.328,-1.045 -1.328,-3.12 0,-1.223 0.119,-2.059 0.344,-2.521 0.223,-0.449 0.552,-0.672 0.97,-0.672 0.418,0 0.731,0.223 0.94,0.656 0.224,0.448 0.328,1.269 0.328,2.462 C 0.328,-1.284 0.224,-0.433 0,0 m -0.971,-6.328 c -2.074,0 -3.402,1.224 -3.402,3.746 0,1.269 0.344,2.239 1.015,2.91 0.686,0.672 1.537,1 2.537,1 2.134,0 3.268,-1.298 3.268,-3.731 0,-2.493 -1.313,-3.925 -3.418,-3.925"
             style="fill:#0b2718;fill-opacity:1;fill-rule:nonzero;stroke:none"
             transform="matrix(0.35277776,0,0,-0.35277776,57.475577,90.468065)"
             clip-path="url(#clipPath281)" />
          <path
             id="path282"
             d="m 0,0 c 0,-0.447 0.015,-0.747 0.045,-0.896 0.029,-0.134 0.09,-0.253 0.194,-0.328 0.164,-0.104 0.417,-0.164 0.731,-0.164 0.94,0 1.596,0.329 1.955,0.971 0.373,0.656 0.553,1.82 0.553,3.491 0,1.418 -0.209,2.477 -0.627,3.149 C 2.447,6.835 1.836,7.149 0.984,7.149 0.522,7.149 0.239,7.074 0.135,6.91 0.045,6.775 0,6.387 0,5.716 Z M -3.029,-2.074 V -2 c 0.432,0.149 0.686,0.329 0.775,0.538 0.075,0.179 0.119,0.686 0.119,1.536 V 5.91 c 0,0.761 -0.044,1.224 -0.119,1.388 -0.089,0.179 -0.343,0.343 -0.775,0.493 V 7.88 H 1.194 C 2.492,7.88 3.478,7.641 4.149,7.163 5.269,6.372 5.82,5.044 5.82,3.179 5.82,-0.209 4.179,-2.074 1.09,-2.074 Z"
             style="fill:#0b2718;fill-opacity:1;fill-rule:nonzero;stroke:none"
             transform="matrix(0.35277776,0,0,-0.35277776,60.376717,91.900202)"
             clip-path="url(#clipPath283)" />
          <path
             id="path284"
             d="m 0,0 c -0.209,0.433 -0.522,0.657 -0.926,0.657 -0.88,0 -1.327,-1.045 -1.327,-3.12 0,-1.223 0.119,-2.059 0.343,-2.521 0.223,-0.449 0.552,-0.672 0.97,-0.672 0.418,0 0.731,0.223 0.94,0.656 0.224,0.448 0.328,1.269 0.328,2.462 C 0.328,-1.284 0.224,-0.433 0,0 m -0.971,-6.328 c -2.074,0 -3.401,1.224 -3.401,3.746 0,1.269 0.343,2.239 1.014,2.91 0.686,0.672 1.538,1 2.538,1 2.133,0 3.267,-1.298 3.267,-3.731 0,-2.493 -1.312,-3.925 -3.418,-3.925"
             style="fill:#0b2718;fill-opacity:1;fill-rule:nonzero;stroke:none"
             transform="matrix(0.35277776,0,0,-0.35277776,64.309624,90.468065)"
             clip-path="url(#clipPath285)" />
          <path
             id="path286"
             d="m 0,0 h -3.402 v 0.06 c 0.313,0.148 0.522,0.313 0.596,0.478 0.076,0.163 0.12,0.447 0.12,0.865 v 4.104 c 0,0.612 -0.075,0.999 -0.209,1.194 -0.119,0.164 -0.283,0.268 -0.507,0.343 v 0.075 c 0.582,0.194 1.328,0.283 2.223,0.283 0.284,0 0.449,-0.119 0.463,-0.358 0.015,-0.164 0.029,-0.538 0.029,-1.089 0.299,0.91 1.12,1.507 2.135,1.507 1.06,0 1.612,-0.448 1.776,-1.567 C 3.537,6.85 4.373,7.462 5.447,7.462 6.388,7.462 6.97,7.044 7.164,6.223 7.238,5.88 7.283,5.313 7.283,4.552 V 1.478 C 7.283,0.91 7.358,0.552 7.492,0.403 7.597,0.283 7.775,0.164 8.06,0.06 V 0 H 4.687 V 0.06 C 4.91,0.179 5.06,0.328 5.164,0.493 5.239,0.642 5.283,0.985 5.283,1.537 V 4.552 C 5.283,5.328 5.209,5.805 5.045,5.969 4.896,6.148 4.687,6.238 4.403,6.238 4.09,6.238 3.836,6.148 3.642,5.984 3.478,5.85 3.388,5.686 3.343,5.522 3.299,5.387 3.284,5.193 3.284,4.925 V 1.478 C 3.284,0.91 3.358,0.552 3.492,0.403 3.597,0.269 3.762,0.164 4,0.06 V 0 H 0.687 V 0.06 C 0.926,0.194 1.09,0.343 1.18,0.493 1.254,0.627 1.299,0.97 1.299,1.537 V 4.552 C 1.299,5.328 1.224,5.805 1.061,5.969 0.762,6.327 0.12,6.327 -0.357,5.984 -0.492,5.865 -0.581,5.715 -0.642,5.551 -0.687,5.387 -0.701,5.193 -0.701,4.955 V 1.478 c 0,-0.523 0.045,-0.866 0.149,-1.016 C -0.478,0.343 -0.283,0.208 0,0.06 Z"
             style="fill:#0b2718;fill-opacity:1;fill-rule:nonzero;stroke:none"
             transform="matrix(0.35277776,0,0,-0.35277776,66.636793,92.631933)"
             clip-path="url(#clipPath287)" />
          <path
             id="path288"
             d="m 0,0 c 0,0.643 0.462,1.09 1.074,1.09 0.612,0 1.014,-0.433 1.014,-1.075 0,-0.641 -0.417,-1.089 -1.059,-1.089 C 0.447,-1.074 0,-0.642 0,0 m 2.91,-9.401 h -3.493 v 0.059 c 0.328,0.164 0.538,0.328 0.612,0.508 0.075,0.164 0.119,0.462 0.119,0.925 v 3.955 c 0,0.671 -0.059,1.089 -0.193,1.253 -0.165,0.194 -0.344,0.299 -0.538,0.328 v 0.09 c 0.194,0.06 0.538,0.119 1.061,0.195 0.521,0.074 0.955,0.104 1.312,0.104 0.298,0 0.373,-0.135 0.373,-0.478 0,-0.119 0,-0.522 -0.015,-1.224 C 2.133,-4.387 2.133,-4.805 2.133,-4.939 v -2.956 c 0,-0.491 0.045,-0.805 0.12,-0.969 0.074,-0.165 0.299,-0.329 0.657,-0.478 z"
             style="fill:#0b2718;fill-opacity:1;fill-rule:nonzero;stroke:none"
             transform="matrix(0.35277776,0,0,-0.35277776,69.885842,89.315365)"
             clip-path="url(#clipPath289)" />
          <path
             id="path290"
             d="m 0,0 h -3.402 v 0.06 c 0.313,0.148 0.522,0.313 0.596,0.478 0.076,0.163 0.12,0.447 0.12,0.865 v 4.104 c 0,0.627 -0.075,1.029 -0.209,1.208 C -3,6.865 -3.164,6.969 -3.402,7.044 v 0.075 c 0.567,0.194 1.298,0.283 2.209,0.283 0.298,0 0.462,-0.119 0.477,-0.343 0.015,-0.164 0.029,-0.538 0.029,-1.12 0.299,0.911 1.135,1.523 2.209,1.523 0.941,0 1.523,-0.418 1.717,-1.239 C 3.313,5.88 3.358,5.313 3.358,4.552 V 1.478 C 3.358,0.94 3.433,0.582 3.582,0.403 3.687,0.269 3.881,0.164 4.149,0.06 V 0 H 0.746 v 0.06 c 0.225,0.134 0.389,0.268 0.493,0.433 0.09,0.164 0.135,0.522 0.135,1.044 v 3 C 1.374,5.313 1.299,5.791 1.135,5.969 0.985,6.148 0.762,6.238 0.463,6.238 0.149,6.238 -0.119,6.148 -0.343,5.984 -0.478,5.88 -0.581,5.746 -0.626,5.581 -0.671,5.358 -0.701,5.148 -0.701,4.955 V 1.478 c 0,-0.523 0.045,-0.866 0.149,-1.016 C -0.478,0.343 -0.283,0.208 0,0.06 Z"
             style="fill:#0b2718;fill-opacity:1;fill-rule:nonzero;stroke:none"
             transform="matrix(0.35277776,0,0,-0.35277776,72.323253,92.631933)"
             clip-path="url(#clipPath291)" />
          <path
             id="path292"
             d="m 0,0 c -0.581,0 -0.91,-0.417 -0.91,-1.791 0,-1.417 0.313,-1.821 0.865,-1.821 0.553,0 0.897,0.448 0.897,1.836 C 0.852,-0.402 0.553,0 0,0 m -1.478,-7.283 c -0.164,-0.238 -0.252,-0.537 -0.252,-0.91 0,-0.761 0.641,-1.239 1.671,-1.239 1.269,0 1.79,0.523 1.79,1.179 0,0.418 -0.209,0.717 -0.611,0.881 -0.807,0.313 -1.432,0.462 -1.895,0.462 -0.269,0 -0.508,-0.119 -0.703,-0.373 M -2.79,-1.88 c 0,1.597 0.955,2.552 2.865,2.552 0.612,0 1.135,-0.119 1.552,-0.343 0.866,0.074 1.477,0.253 1.836,0.551 l 0.09,-0.015 c -0.045,-0.91 -0.135,-1.238 -0.568,-1.238 -0.133,0 -0.343,0.03 -0.627,0.075 0.254,-0.373 0.373,-0.851 0.373,-1.404 0,-1.611 -1.059,-2.506 -2.79,-2.506 -0.075,0 -0.419,0.015 -0.493,0.015 -0.135,0 -0.238,-0.045 -0.313,-0.135 -0.06,-0.074 -0.09,-0.179 -0.09,-0.298 0,-0.194 0.12,-0.314 0.374,-0.374 L 0.508,-5.238 C 1.12,-5.373 1.612,-5.492 2,-5.611 c 1.12,-0.344 1.522,-0.896 1.522,-1.836 0,-0.791 -0.328,-1.432 -0.984,-1.925 -0.642,-0.492 -1.522,-0.732 -2.642,-0.732 -1.97,0 -3.015,0.702 -3.015,1.776 0,0.717 0.538,1.418 1.791,1.612 -0.597,0.194 -0.895,0.568 -0.895,1.119 0,0.642 0.358,1.15 1.089,1.493 -1.104,0.313 -1.656,1.06 -1.656,2.224"
             style="fill:#0b2718;fill-opacity:1;fill-rule:nonzero;stroke:none"
             transform="matrix(0.35277776,0,0,-0.35277776,74.992512,90.247085)"
             clip-path="url(#clipPath293)" />
          <path
             id="path294"
             d="m 0,0 c -0.208,0.433 -0.521,0.657 -0.925,0.657 -0.88,0 -1.328,-1.045 -1.328,-3.12 0,-1.223 0.119,-2.059 0.343,-2.521 0.224,-0.449 0.553,-0.672 0.971,-0.672 0.418,0 0.731,0.223 0.939,0.656 0.225,0.448 0.328,1.269 0.328,2.462 C 0.328,-1.284 0.225,-0.433 0,0 m -0.97,-6.328 c -2.074,0 -3.402,1.224 -3.402,3.746 0,1.269 0.343,2.239 1.015,2.91 0.686,0.672 1.537,1 2.537,1 2.133,0 3.268,-1.298 3.268,-3.731 0,-2.493 -1.313,-3.925 -3.418,-3.925"
             style="fill:#0b2718;fill-opacity:1;fill-rule:nonzero;stroke:none"
             transform="matrix(0.35277776,0,0,-0.35277776,77.862289,90.468065)"
             clip-path="url(#clipPath295)" />
          <path
             id="path296"
             d="M 0,0 C -0.229,0 -0.459,0.044 -0.679,0.135 -1.342,0.41 -1.771,1.052 -1.771,1.77 v 5.153 c 0,0.491 0.398,0.889 0.888,0.889 0.491,0 0.889,-0.398 0.889,-0.889 V 1.77 L 5.77,7.552 c 0.346,0.346 0.909,0.346 1.255,0 0.348,-0.347 0.348,-0.91 0,-1.257 L 1.249,0.519 C 0.91,0.18 0.46,0 0,0"
             style="fill:#217234;fill-opacity:1;fill-rule:nonzero;stroke:none"
             transform="matrix(0.35277776,0,0,-0.35277776,81.805885,85.045483)"
             clip-path="url(#clipPath297)" />
          <path
             id="path298"
             d="m 0,0 c -0.076,0 -0.153,0.01 -0.23,0.03 l -7.891,2.115 c -0.693,0.186 -1.202,0.766 -1.296,1.478 -0.094,0.711 0.247,1.404 0.869,1.763 l 4.463,2.576 c 0.426,0.246 0.969,0.101 1.214,-0.325 0.245,-0.425 0.1,-0.968 -0.325,-1.213 L -7.659,3.847 0.229,1.747 C 0.703,1.62 0.984,1.133 0.857,0.659 0.751,0.262 0.393,0 0,0"
             style="fill:#1c9543;fill-opacity:1;fill-rule:nonzero;stroke:none"
             transform="matrix(0.35277776,0,0,-0.35277776,85.422879,86.867792)"
             clip-path="url(#clipPath299)" />
          <path
             id="path300"
             d="m 0,0 c -0.393,0 -0.751,0.262 -0.857,0.659 l -2.115,7.89 c -0.185,0.694 0.062,1.425 0.632,1.862 0.569,0.437 1.34,0.487 1.962,0.129 L 4.085,7.962 C 4.51,7.717 4.655,7.174 4.41,6.749 4.165,6.324 3.621,6.178 3.196,6.424 L -1.267,9 0.858,1.119 C 0.986,0.645 0.704,0.158 0.23,0.03 0.153,0.01 0.076,0 0,0"
             style="fill:#16bd53;fill-opacity:1;fill-rule:nonzero;stroke:none"
             transform="matrix(0.35277776,0,0,-0.35277776,82.680597,90.021237)"
             clip-path="url(#clipPath301)" />
          <path
             id="path302"
             d="m 0,0 c -0.228,0 -0.454,0.087 -0.628,0.26 -0.347,0.347 -0.347,0.91 0,1.257 L 5.148,7.293 C 5.656,7.801 6.413,7.952 7.076,7.677 7.74,7.402 8.169,6.76 8.169,6.042 V 0.889 C 8.169,0.398 7.771,0 7.28,0 6.789,0 6.392,0.398 6.392,0.889 V 6.042 L 0.629,0.26 C 0.455,0.087 0.228,0 0,0"
             style="fill:#4bcb72;fill-opacity:1;fill-rule:nonzero;stroke:none"
             transform="matrix(0.35277776,0,0,-0.35277776,78.578886,89.223359)"
             clip-path="url(#clipPath303)" />
          <path
             id="path304"
             d="m 0,0 c -0.308,0 -0.606,0.159 -0.771,0.444 -0.245,0.425 -0.099,0.969 0.326,1.214 l 4.463,2.577 -7.889,2.1 c -0.474,0.127 -0.755,0.614 -0.628,1.088 0.127,0.474 0.614,0.755 1.088,0.628 L 4.479,5.937 C 5.173,5.751 5.682,5.171 5.775,4.459 5.869,3.747 5.528,3.055 4.906,2.696 L 0.443,0.119 C 0.303,0.039 0.15,0 0,0"
             style="fill:#a6f0ac;fill-opacity:1;fill-rule:nonzero;stroke:none"
             transform="matrix(0.35277776,0,0,-0.35277776,78.503427,87.496159)"
             clip-path="url(#clipPath305)" />
          <path
             id="path306"
             d="m 0,0 c -0.304,0 -0.609,0.079 -0.885,0.238 l -4.464,2.577 c -0.424,0.245 -0.57,0.789 -0.325,1.213 0.246,0.426 0.789,0.571 1.214,0.326 L 0.003,1.777 -2.122,9.659 c -0.127,0.474 0.154,0.961 0.628,1.088 0.473,0.127 0.961,-0.154 1.088,-0.628 L 1.708,2.228 C 1.895,1.534 1.646,0.804 1.076,0.367 0.76,0.124 0.381,0 0,0"
             style="fill:#224c24;fill-opacity:1;fill-rule:nonzero;stroke:none"
             transform="matrix(0.35277776,0,0,-0.35277776,80.40684,85.293733)"
             clip-path="url(#clipPath307)" />
        </g>
        <rect
           style="fill:none;stroke:#ef2929;stroke-width:0;stroke-dasharray:none;stroke-opacity:1"
           id="rect2"
           width="71.670677"
           height="22.48283"
           x="19.332628"
           y="76.556358" />
      </g>
    </g>
  </g>
</svg>
